# xmcd
# 
# Track frame offsets:
#     150
#     19300
#     41500
#     67525
#     88975
# 
# Disc length: 1512
# 
# Revision: 0
# Processed by: cddbd v1.5.2PL0 Copyright (c) Steve Scherf et al.
# Submitted via: fre:ac v1.0.17
# 
DISCID=3605e605
DTITLE=石川智晶 - 私のココロはそう言ってない
DYEAR=2014
DGENRE=JPop
TTITLE0=私のココロはそう言ってない
TTITLE1=北極星～ポラリス～ simple ver.
TTITLE2=ティル・ナ・ノーグ
TTITLE3=何を泣くなんの涙
TTITLE4=GIFT
EXTD=
EXTT0=
EXTT1=
EXTT2=
EXTT3=
EXTT4=
PLAYORDER=
